# xmcd
#
# Track frame offsets:
#	150
#	15196
#	33903
#	50714
#	66532
#	81271
#	96592
#	112055
#	130043
#	147339
#	161055
#	177625
#	188733
#	201553
#	215512
#	227020
#	239580
#	258508
#
# Disc length: 3626 seconds
#
# Revision: 2888717450
# Processed by: cddbd v1.5.2PL0 Copyright (c) Steve Scherf et al.
# Submitted via: EZCDAudioConverter 8.0.7.1
#
DISCID=150e2812
DTITLE=Confederate Railroad - The Very Best Of Confederate Railroad
DYEAR=2008
DGENRE=Country
TTITLE0=Queen Of Memphis
TTITLE1=Notorious
TTITLE2=Daddy Never Was The Cadillac Kind
TTITLE3=Elvis And Andy
TTITLE4=Trashy Women
TTITLE5=Jesus And Mama
TTITLE6=She Never Cried
TTITLE7=What Brothers Do
TTITLE8=She Treats Her Body Like A Temple
TTITLE9=Summer In Dixie
TTITLE10=Bill's Laundromat, Bar And Grill
TTITLE11=When And Where
TTITLE12=See Ya
TTITLE13=I Hate Rap
TTITLE14=The Big One
TTITLE15=She Took It Like A Man
TTITLE16=When You Leave That Way You Can Never Go Back
TTITLE17=White Trash With Money
EXTD=
EXTT0=
EXTT1=
EXTT2=
EXTT3=
EXTT4=
EXTT5=
EXTT6=
EXTT7=
EXTT8=
EXTT9=
EXTT10=
EXTT11=
EXTT12=
EXTT13=
EXTT14=
EXTT15=
EXTT16=
EXTT17=
PLAYORDER=
